HIERARCHY
ROOT Hips
{
	OFFSET 0.00000 0.00000 0.00000
	CHANNELS 6 Xposition Yposition Zposition Zrotation Yrotation Xrotation 
	JOINT LHipJoint
	{
		OFFSET 0 0 0
		CHANNELS 3 Zrotation Yrotation Xrotation
		JOINT LeftUpLeg
		{
			OFFSET 1.58161 -1.81893 0.78828
			CHANNELS 3 Zrotation Yrotation Xrotation
			JOINT LeftLeg
			{
				OFFSET 2.53374 -6.96141 0.00000
				CHANNELS 3 Zrotation Yrotation Xrotation
				JOINT LeftFoot
				{
					OFFSET 2.63509 -7.23986 0.00000
					CHANNELS 3 Zrotation Yrotation Xrotation
					JOINT LeftToeBase
					{
						OFFSET 0.14115 -0.38781 2.05350
						CHANNELS 3 Zrotation Yrotation Xrotation
						End Site
						{
							OFFSET 0.00000 -0.00000 1.05543
						}
					}
				}
			}
		}
	}
	JOINT RHipJoint
	{
		OFFSET 0 0 0
		CHANNELS 3 Zrotation Yrotation Xrotation
		JOINT RightUpLeg
		{
			OFFSET -1.11138 -1.81893 0.78828
			CHANNELS 3 Zrotation Yrotation Xrotation
			JOINT RightLeg
			{
				OFFSET -2.58392 -7.09926 0.00000
				CHANNELS 3 Zrotation Yrotation Xrotation
				JOINT RightFoot
				{
					OFFSET -2.66423 -7.31992 0.00000
					CHANNELS 3 Zrotation Yrotation Xrotation
					JOINT RightToeBase
					{
						OFFSET -0.18831 -0.51739 2.12114
						CHANNELS 3 Zrotation Yrotation Xrotation
						End Site
						{
							OFFSET -0.00000 -0.00000 1.09845
						}
					}
				}
			}
		}
	}
	JOINT LowerBack
	{
		OFFSET 0 0 0
		CHANNELS 3 Zrotation Yrotation Xrotation
		JOINT Spine
		{
			OFFSET -0.01511 1.97958 -0.08829
			CHANNELS 3 Zrotation Yrotation Xrotation
			JOINT Spine1
			{
				OFFSET 0.08344 1.97334 -0.04330
				CHANNELS 3 Zrotation Yrotation Xrotation
				JOINT Neck
				{
					OFFSET 0 0 0
					CHANNELS 3 Zrotation Yrotation Xrotation
					JOINT Neck1
					{
						OFFSET 0.00559 1.76246 0.31246
						CHANNELS 3 Zrotation Yrotation Xrotation
						JOINT Head
						{
							OFFSET -0.07011 1.80354 -0.30524
							CHANNELS 3 Zrotation Yrotation Xrotation
							End Site
							{
								OFFSET -0.02385 1.83547 -0.13906
							}
						}
					}
				}
				JOINT LeftShoulder
				{
					OFFSET 0 0 0
					CHANNELS 3 Zrotation Yrotation Xrotation
					JOINT LeftArm
					{
						OFFSET 3.20667 1.30156 -0.60240
						CHANNELS 3 Zrotation Yrotation Xrotation
						JOINT LeftForeArm
						{
							OFFSET 4.95663 -0.00000 0.00000
							CHANNELS 3 Zrotation Yrotation Xrotation
							JOINT LeftHand
							{
								OFFSET 3.38177 -0.00000 0.00000
								CHANNELS 3 Zrotation Yrotation Xrotation
								JOINT LeftFingerBase
								{
									OFFSET 0 0 0
									CHANNELS 3 Zrotation Yrotation Xrotation
									JOINT LeftHandIndex1
									{
										OFFSET 0.66291 -0.00000 0.00000
										CHANNELS 3 Zrotation Yrotation Xrotation
										End Site
										{
											OFFSET 0.53445 -0.00000 0.00000
										}
									}
								}
								JOINT LThumb
								{
									OFFSET 0 0 0
									CHANNELS 3 Zrotation Yrotation Xrotation
									End Site
									{
										OFFSET 0.54261 -0.00000 0.54261
									}
								}
							}
						}
					}
				}
				JOINT RightShoulder
				{
					OFFSET 0 0 0
					CHANNELS 3 Zrotation Yrotation Xrotation
					JOINT RightArm
					{
						OFFSET -3.06877 1.34672 -0.60964
						CHANNELS 3 Zrotation Yrotation Xrotation
						JOINT RightForeArm
						{
							OFFSET -5.08365 -0.00000 0.00000
							CHANNELS 3 Zrotation Yrotation Xrotation
							JOINT RightHand
							{
								OFFSET -3.35984 -0.00000 0.00000
								CHANNELS 3 Zrotation Yrotation Xrotation
								JOINT RightFingerBase
								{
									OFFSET 0 0 0
									CHANNELS 3 Zrotation Yrotation Xrotation
									JOINT RightHandIndex1
									{
										OFFSET -0.82076 -0.00000 0.00000
										CHANNELS 3 Zrotation Yrotation Xrotation
										End Site
										{
											OFFSET -0.66172 -0.00000 0.00000
										}
									}
								}
								JOINT RThumb
								{
									OFFSET 0 0 0
									CHANNELS 3 Zrotation Yrotation Xrotation
									End Site
									{
										OFFSET -0.67182 -0.00000 0.67182
									}
								}
							}
						}
					}
				}
			}
		}
	}
}
MOTION
Frames: 7
Frame Time: .0083333
-6.6666 17.6864 -0.6172 0 0 0 0 0 0 -21 0 0 0 0 0 0 0 0 0 0 0 0 0 0 21 0 0 0 0 0 0 0 0 0 0 0 0 0 0 0 0 0 0 0 0 0 0 -16 0 0 21 0 0 11 0 0 0 -8 0 0 0 0 0 0 0 0 0 0 0 0 0 0 0 0 0 0 0 0 8 0 0 0 0 0 0 0 0 0 0 0 0 0 0 0 0 0
-6.6666 17.6864 -0.6172 -105.9780 86.8959 -91.4661 0.0000 0.0000 0.0000 -7.5563 -2.6483 -31.2959 3.0534 10.7811 31.5450 0.3707 -7.7520 -11.3541 0.9838 -6.3136 -17.6971 0.0000 0.0000 0.0000 10.4391 5.7551 -30.4142 -3.0656 -10.8005 31.6099 -0.3488 -2.2467 -12.2081 -0.2129 -2.9708 8.1974 -1.5062 2.6087 4.1342 4.5148 3.5453 4.1367 5.4148 1.7463 1.5745 1.1893 -2.4426 -15.0060 -5.1678 -0.0159 39.2748 -2.3428 0.0493 16.6981 0.0000 0.0000 0.0000 -104.2669 -22.2157 84.5688 13.2850 -21.7034 -2.5577 -0.0000 0.0000 -34.9301 40.5686 67.4915 38.3416 -7.1250 0.0000 -0.0000 171.5299 12.6480 6.4828 0.0000 0.0000 0.0000 102.7566 23.3690 33.2889 -11.7341 19.4046 -2.0131 0.0000 -0.0000 -44.3939 -13.7243 -5.7734 1.4073 7.1250 -0.0000 -0.0000 10.8372 -35.7432 2.5021
-6.6661 17.6862 -0.6187 -106.5100 86.9128 -92.0029 0.0000 0.0000 0.0000 -7.5876 -2.6607 -31.2907 3.0510 10.7772 31.5322 0.3692 -7.7419 -11.3323 0.9787 -6.2975 -17.6501 0.0000 0.0000 0.0000 10.3959 5.7507 -30.3990 -3.0678 -10.8041 31.6219 -0.3535 -2.1746 -12.2394 -0.2623 -3.2949 9.1008 -1.5116 2.6035 4.1424 4.5103 3.5383 4.1322 5.4128 1.7428 1.5660 1.1743 -2.4591 -15.0011 -5.1554 -0.0413 39.2738 -2.3389 0.0385 16.6951 -0.0000 -0.0000 0.0000 -104.2410 -22.1966 84.6340 13.3021 -21.7283 -2.5641 -0.0000 0.0000 -35.0226 38.8167 67.5996 36.6417 -7.1250 0.0000 -0.0000 171.1278 12.3344 6.8568 -0.0000 -0.0000 0.0000 102.9678 23.4280 32.7778 -11.6258 19.2410 -1.9772 0.0000 -0.0000 -43.7232 -13.7522 -5.7101 1.3949 7.1250 -0.0000 -0.0000 10.8041 -35.6806 2.5110
-6.6663 17.6855 -0.6217 -107.3310 86.9172 -92.8397 0.0000 0.0000 0.0000 -7.6138 -2.6757 -31.2949 3.0550 10.7836 31.5534 0.3681 -7.7572 -11.3218 0.9757 -6.2881 -17.6226 0.0000 0.0000 0.0000 10.4174 5.6055 -30.4282 -3.0660 -10.8011 31.6119 -0.3470 -2.2183 -12.1632 -0.2420 -3.1658 8.7407 -1.4969 2.6008 4.1690 4.5202 3.5357 4.1313 5.4136 1.7423 1.5507 1.1441 -2.4648 -14.9732 -5.1283 -0.0526 39.2505 -2.3219 0.0330 16.6752 -0.0000 -0.0000 0.0000 -104.2800 -22.2029 84.6417 13.2924 -21.7142 -2.5605 -0.0000 0.0000 -34.9241 38.7807 67.6804 36.6224 -7.1250 0.0000 -0.0000 171.0850 12.3935 6.8797 -0.0000 -0.0000 0.0000 103.1975 23.5379 32.1233 -11.4775 19.0165 -1.9287 0.0000 -0.0000 -42.9166 -13.4724 -5.7521 1.3755 7.1250 -0.0000 -0.0000 11.0411 -35.7085 2.5601
-6.6665 17.6852 -0.6246 -108.1370 86.8906 -93.6741 0.0000 0.0000 0.0000 -7.6092 -2.6789 -31.2774 3.0564 10.7857 31.5606 0.3648 -7.8371 -11.3002 0.9614 -6.2431 -17.4914 0.0000 0.0000 0.0000 10.4824 5.4552 -30.4452 -3.0647 -10.7990 31.6049 -0.3428 -2.9251 -12.5268 -0.3049 3.5503 -9.8147 -1.5193 2.5797 4.2080 4.5865 3.5092 4.1394 5.4953 1.7290 1.5350 1.1320 -2.4456 -14.9719 -5.1844 0.0039 39.2430 -2.3344 0.0470 16.6743 0.0000 0.0000 0.0000 -104.3643 -22.2362 84.5617 13.2774 -21.6924 -2.5549 -0.0000 0.0000 -34.8476 38.3348 67.8255 36.2136 -7.1250 0.0000 -0.0000 170.9310 12.4157 6.9973 0.0000 0.0000 0.0000 103.2401 23.5745 31.9053 -11.4206 18.9300 -1.9101 0.0000 -0.0000 -42.6121 -13.2920 -5.8022 1.3681 7.1250 -0.0000 -0.0000 11.1976 -35.7495 2.5862
-6.6665 17.6868 -0.6256 -108.5120 86.8579 -94.0656 0.0000 0.0000 0.0000 -7.5803 -2.6956 -31.2579 3.0577 10.7879 31.5678 0.3626 -7.8715 -11.2823 0.9502 -6.2080 -17.3890 0.0000 0.0000 0.0000 10.5196 5.4477 -30.4154 -3.0641 -10.7981 31.6019 -0.3366 -3.0065 -12.4836 -0.3598 3.8536 -10.6651 -1.5357 2.5871 4.2418 4.6314 3.5202 4.1355 5.5494 1.7349 1.5075 1.1515 -2.4548 -15.0056 -5.2325 0.0103 39.2889 -2.3603 0.0478 16.7079 -0.0000 -0.0000 0.0000 -104.4212 -22.2280 84.4921 13.2501 -21.6526 -2.5448 -0.0000 0.0000 -34.7629 37.6159 67.6947 35.4847 -7.1250 0.0000 -0.0000 170.8409 12.1499 7.1200 -0.0000 -0.0000 0.0000 103.2773 23.6350 31.5577 -11.3347 18.7995 -1.8824 0.0000 -0.0000 -42.1932 -13.3061 -5.7518 1.3578 7.1250 -0.0000 -0.0000 11.1778 -35.6995 2.5953
-6.6668 17.6871 -0.6252 -108.6250 86.8626 -94.1652 0.0000 0.0000 0.0000 -7.5768 -2.7118 -31.2715 3.0585 10.7892 31.5722 0.3636 -7.8687 -11.2942 0.9491 -6.2044 -17.3787 0.0000 0.0000 0.0000 10.5015 5.4997 -30.4072 -3.0632 -10.7967 31.5972 -0.3302 -2.5527 -12.0965 -0.0652 -1.6472 4.5317 -1.5322 2.6313 4.2359 4.6144 3.5787 4.1291 5.5272 1.7645 1.4990 1.1639 -2.4959 -15.0290 -5.1841 -0.0723 39.3183 -2.3568 0.0234 16.7245 0.0000 -0.0000 0.0000 -104.4414 -22.2102 84.4745 13.2148 -21.6012 -2.5318 -0.0000 0.0000 -34.5584 37.0404 67.5019 34.8852 -7.1250 0.0000 -0.0000 170.8043 11.8636 7.2045 0.0000 -0.0000 0.0000 103.3385 23.7385 31.1809 -11.2469 18.6658 -1.8542 0.0000 -0.0000 -41.8622 -13.3143 -5.7372 1.3552 7.1250 -0.0000 -0.0000 11.1687 -35.6853 2.5971
